<?xml version="1.0" encoding="utf-8"?>
<!-- Generator: Adobe Illustrator 22.1.0, SVG Export Plug-In . SVG Version: 6.00 Build 0)  -->
<svg version="1.1" id="Capa_1" xmlns="http://www.w3.org/2000/svg" xmlns:xlink="http://www.w3.org/1999/xlink" x="0px" y="0px"
	 viewBox="0 0 287.6 47.2" style="enable-background:new 0 0 287.6 47.2;" xml:space="preserve">
<style type="text/css">
	.st0{fill:#FFFFFF;}
	.st1{fill:none;}
</style>
<g>
	<path class="st0" d="M200.3,27.6c1.2,0,2.3,0,3.5,0c0.2,0,0.5,0,0.7,0c0.1-0.6,0.1-0.6-0.4-0.7c-0.2-0.1-0.4-0.1-0.6-0.2
		c-0.7-0.2-0.8-0.4-0.6-1.1c0-0.1,0.1-0.2,0.1-0.4c0.5-1.4,1.1-2.8,1.6-4.2c0.1-0.3,0.2-0.3,0.5-0.3c1.7,0,3.5,0,5.2,0
		c0.8,0,0.8,0,1.1,0.8c0.5,1.4,1,2.7,1.4,4.1c0.2,0.7,0.1,0.9-0.6,1.1c-0.4,0.1-0.7,0.2-1.1,0.3c0,0.2,0.1,0.4,0.1,0.5
		c2.3,0,4.5,0,6.7,0c0.1-0.4,0-0.6-0.4-0.7c-1.2-0.2-1.9-0.9-2.2-2.1c0,0,0-0.1,0-0.1c-1.8-5-3.7-10.1-5.5-15.1
		c-0.3-0.9-0.3-0.9-1.3-0.8c-0.3,0-0.4,0.2-0.5,0.4c-1.6,3.8-3.2,7.6-4.8,11.4c-0.7,1.7-1.4,3.4-2.2,5.1c-0.6,1.2-2,1.5-3,0.6
		c-0.5-0.5-0.9-1-1.3-1.6c-1.2-1.8-2.3-3.7-3.5-5.5c-0.1-0.2-0.3-0.5-0.5-0.7c0.5-0.2,1-0.4,1.5-0.7c1.5-0.8,2.4-1.9,2.6-3.6
		c0.3-2.5-0.7-4.3-3.2-5c-1-0.3-2.1-0.3-3.1-0.3c-2.3,0-4.6,0-6.9,0.1c-0.1,0-0.1,0-0.2,0c-0.1,0.5-0.1,0.5,0.4,0.7
		c0.2,0.1,0.4,0.1,0.7,0.2c0.9,0.3,0.9,0.3,0.9,1.2c0,4.3,0,8.6,0,12.9c0,0.6,0,1.2,0,1.8c0,0.6,0,0.6-0.6,0.8
		c-0.3,0.1-0.6,0.2-0.9,0.3c-0.5,0.2-0.5,0.2-0.4,0.7c2.1,0,4.2,0,6.4,0c0.1-0.4,0-0.6-0.4-0.7c-0.3,0-0.5-0.1-0.8-0.2
		c-0.6-0.2-0.6-0.2-0.6-0.8c0-2.2,0-4.4,0-6.6c0-0.1,0-0.2,0-0.3c0.4,0,0.8,0,1.1,0c0.5,0,0.9,0.3,1.2,0.7c0.4,0.7,0.9,1.4,1.3,2.2
		c0.8,1.3,1.6,2.7,2.4,4c0.8,1.3,2,2,3.6,1.9C198.7,27.8,199.5,27.7,200.3,27.6z M208.2,12.2c0.9,2.5,1.7,4.9,2.6,7.3
		c-1.8,0-3.6,0-5.5,0C206.3,17.1,207.2,14.7,208.2,12.2z M191.1,17.9c-0.9,0.1-1.9,0.1-2.8,0.1c0-2.7,0-5.2,0-7.9c0.8,0,1.6,0,2.4,0
		c0.3,0,0.5,0.1,0.8,0.1c1.6,0.3,2.4,1.2,2.7,2.8c0.1,0.8,0.1,1.7-0.1,2.5C193.6,16.9,192.6,17.7,191.1,17.9z"/>
	<path class="st0" d="M237.4,9.1c-1.8,0-3.6,0-5.4,0c-0.1,0.4,0,0.7,0.5,0.7c0.3,0,0.5,0.1,0.8,0.2c0.6,0.2,0.7,0.2,0.7,0.9
		c0,3.9,0,7.9,0,11.8c0,0.1,0,0.1,0,0.2c-0.1-0.1-0.2-0.2-0.3-0.3c-1.1-1.3-2.1-2.7-3.2-4c-2.5-3.1-5-6.2-7.4-9.3
		c-0.2-0.2-0.3-0.3-0.6-0.3c-0.8,0-1.7,0-2.5,0c-0.3,0-0.7,0-1,0c-0.1,0.4,0,0.6,0.4,0.7c0.3,0.1,0.7,0.2,1,0.3
		c0.4,0.1,0.6,0.3,0.6,0.8c0,5.1,0,10.1,0,15.2c0,0.4-0.1,0.6-0.5,0.7c-0.5,0.1-1,0.3-1.5,0.5c0,0.2,0,0.4,0.1,0.5
		c1.8,0,3.6,0,5.4,0c0.1-0.4,0-0.6-0.4-0.7c-0.3,0-0.6-0.2-0.8-0.2c-0.6-0.2-0.6-0.2-0.6-0.8c0-4.2,0-8.4,0-12.6c0-0.1,0-0.2,0-0.3
		c0.1,0.1,0.2,0.2,0.2,0.2c2.3,2.8,4.5,5.6,6.8,8.5c1.6,2,3.1,3.9,4.7,5.9c0.1,0.1,0.3,0.3,0.4,0.3c0.3,0,0.6,0,0.9-0.1
		c0-0.2,0-0.3,0-0.5c0-4.9,0-9.8,0-14.7c0-0.5,0-1.1,0-1.6c0-0.4,0.1-0.6,0.6-0.7c0.3-0.1,0.7-0.2,1-0.3
		C237.5,9.6,237.5,9.6,237.4,9.1z"/>
	<path class="st0" d="M285.9,19c-0.5-0.4-1-0.7-1.6-1c-1-0.5-2.1-1-3.1-1.5c-0.6-0.3-1.2-0.7-1.8-1.1c-1-0.9-1.3-2.1-1-3.4
		c0.3-1.2,1.2-1.8,2.4-2.1c1.3-0.3,2.5-0.1,3.7,0.3c0.1,0,0.2,0.2,0.3,0.3c0.2,0.5,0.3,1,0.4,1.6c0.1,0.5,0.3,1,0.4,1.4
		c0.4,0,0.6-0.1,0.6-0.5c0.2-1.1,0.4-2.3,0.6-3.4c0.1-0.3,0-0.4-0.3-0.5c-1.4-0.1-2.7-0.4-4.1-0.4c-1.8-0.1-3.5,0.3-5,1.3
		c-0.9,0.6-1.5,1.3-1.8,2.3c-0.6,2,0.1,4,1.7,5.2c0.4,0.3,0.9,0.6,1.4,0.9c0.8,0.4,1.6,0.7,2.4,1.2c0.8,0.4,1.6,0.8,2.3,1.3
		c1.1,0.8,1.5,2,1.2,3.3c-0.3,1.3-1.1,2-2.3,2.4c-1.4,0.4-2.7,0.3-4.1-0.1c-0.4-0.1-0.6-0.3-0.7-0.8c-0.2-1.1-0.5-2.1-0.8-3.2
		c-0.2,0-0.4,0.1-0.6,0.1c-0.2,1.4-0.4,2.8-0.6,4.2c0,0.3,0,0.4,0.3,0.5c1.9,0.5,3.8,0.8,5.8,0.6c1.6-0.2,3-0.6,4.3-1.6
		C288,24.8,288.4,20.9,285.9,19z"/>
	<path class="st0" d="M156.5,26.8c2.9-1.6,3.3-6.1,0.4-8c-0.4-0.3-0.8-0.5-1.2-0.7c-1-0.5-2.1-1-3.1-1.5c-0.8-0.4-1.4-0.8-2-1.4
		c-1.3-1.4-1.3-4.4,1.5-5.2c1.3-0.4,2.6-0.2,3.9,0.2c0.1,0,0.2,0.2,0.2,0.3c0.3,1,0.5,2,0.8,3c0.3,0,0.5,0,0.6-0.3
		c0.2-1.2,0.4-2.4,0.7-3.6c0.1-0.3,0-0.4-0.3-0.4c-1.4-0.1-2.8-0.4-4.2-0.4c-1.6-0.1-3.2,0.3-4.7,1.1c-3.1,1.7-2.8,5.9-0.6,7.6
		c1,0.7,2,1.2,3.1,1.8c1.1,0.5,2.2,1,3.1,1.7c1.1,0.7,1.4,1.9,1.2,3.2c-0.2,1.3-1,2.1-2.3,2.4c-1.5,0.5-3.1,0.3-4.5-0.2
		c-0.1,0-0.2-0.2-0.3-0.3c-0.1-0.4-0.2-0.9-0.3-1.3c-0.2-0.7-0.4-1.4-0.5-2.2c-0.2,0-0.4,0.1-0.6,0.1c-0.2,1.4-0.4,2.9-0.6,4.3
		c0,0.2,0.1,0.3,0.3,0.4c1.3,0.2,2.5,0.5,3.8,0.6C152.8,28.1,154.8,27.8,156.5,26.8z"/>
	<path class="st0" d="M145.3,27c-1.2-0.2-1.8-0.9-2.2-2.1c-1.8-5.1-3.7-10.2-5.5-15.3c-0.3-0.9-0.3-0.8-1.2-0.7
		c-0.4,0-0.5,0.2-0.6,0.5c-1.6,3.9-3.3,7.8-4.9,11.7c-0.6,1.5-1.3,3-1.9,4.5c-0.3,0.6-0.7,1-1.3,1.1c-0.4,0.1-0.7,0.2-1.1,0.3
		c0,0.2,0.1,0.4,0.1,0.5c1.9,0,3.8,0,5.7,0c0.1-0.6,0.1-0.6-0.4-0.7c-0.1,0-0.2-0.1-0.4-0.1c-1-0.3-1.1-0.4-0.7-1.5
		c0.5-1.4,1.1-2.8,1.6-4.3c0.1-0.3,0.2-0.3,0.5-0.3c1.7,0,3.5,0,5.2,0c0.8,0,0.8,0,1,0.7c0.5,1.4,1,2.8,1.4,4.2
		c0.2,0.7,0.1,0.9-0.6,1.1c-0.3,0.1-0.7,0.2-1,0.3c0,0.2,0,0.3,0,0.4c0,0,0,0.1,0,0.1c2.3,0,4.5,0,6.7,0
		C145.9,27.2,145.7,27,145.3,27z M133,19.5c1-2.4,1.9-4.8,2.9-7.3c0.9,2.5,1.7,4.9,2.6,7.3C136.6,19.5,134.8,19.5,133,19.5z"/>
	<path class="st0" d="M260.9,27.6c0.1-0.5,0.1-0.6-0.4-0.7c-0.2-0.1-0.5-0.1-0.7-0.2c-0.6-0.2-0.7-0.4-0.5-1c0-0.1,0.1-0.2,0.1-0.4
		c0.6-1.4,1.1-2.8,1.7-4.3c0.1-0.3,0.2-0.3,0.5-0.3c1.7,0,3.4,0,5.2,0c0.9,0,0.9,0,1.1,0.8c0.5,1.4,1,2.8,1.4,4.2
		c0.2,0.6,0,0.8-0.6,1c-0.4,0.1-0.7,0.2-1.1,0.3c0,0.2,0.1,0.4,0.1,0.5c2.3,0,4.5,0,6.8,0c0.1-0.4,0-0.6-0.4-0.7
		c-0.3,0-0.5-0.2-0.8-0.2c-0.5-0.1-0.8-0.4-1-0.9c-0.1-0.2-0.2-0.4-0.3-0.7c-1.9-5.2-3.8-10.3-5.6-15.5c-0.3-0.9-0.3-0.9-1.3-0.7
		c-0.3,0-0.5,0.2-0.6,0.5c-1.7,4.1-3.4,8.1-5.1,12.2c-0.6,1.4-1.1,2.7-1.7,4.1c-0.3,0.6-0.7,1-1.4,1.2c-0.4,0.1-0.7,0.2-1,0.3
		c0,0.6,0,0.6,0.5,0.6c1,0,1.9,0,2.9,0C259.4,27.6,260.2,27.6,260.9,27.6z M264.6,12.2c0.9,2.5,1.7,4.9,2.6,7.3c-1.8,0-3.6,0-5.4,0
		C262.7,17.1,263.6,14.7,264.6,12.2z"/>
	<path class="st0" d="M249.5,26.5c-2.9-0.2-5-1.6-6.2-4.2c-1.2-2.8-1.2-5.6,0-8.4c0.8-2,2.3-3.3,4.4-3.8c1.5-0.3,2.9-0.2,4.4,0.2
		c0.3,0.1,0.4,0.2,0.4,0.4c0.1,0.4,0.2,0.8,0.3,1.3c0.2,0.6,0.4,1.3,0.6,2c0.2-0.2,0.5-0.3,0.5-0.4c0.3-1.3,0.5-2.6,0.8-3.9
		c0-0.2,0-0.3-0.2-0.3c-2.5-0.5-5.1-0.8-7.6-0.1c-2.9,0.7-5.2,2.4-6.5,5.2c-0.9,1.9-1,4-0.7,6c0.4,2.8,1.7,5.1,4.2,6.5
		c3.6,2,7.2,1.8,10.8-0.2c0.5-0.3,0.5-0.3,0.2-0.9C252.6,26.4,251.1,26.6,249.5,26.5z"/>
	<path class="st0" d="M172.7,10.3c0,0.2,0,0.4,0,0.5c0,2.5,0,5,0,7.5c0,2.5,0,5.1,0,7.6c0,0.4-0.1,0.6-0.5,0.7
		c-0.6,0.2-1.2,0.4-1.8,0.5c0,0.2,0,0.4,0.1,0.5c2.4,0,4.8,0,7.2,0c0.1-0.4,0-0.6-0.4-0.7c-0.4-0.1-0.9-0.2-1.3-0.4
		c-0.6-0.2-0.6-0.2-0.6-0.8c0-5,0-10.1,0-15.1c0-0.1,0-0.2,0-0.4c0.2,0,0.3,0,0.4,0c1.3,0,2.5,0,3.8,0c0.4,0,0.5,0.1,0.6,0.5
		c0,0.3,0.1,0.6,0.2,1c0.2,0.7,0.3,1.5,0.5,2.2c0.3,0,0.5,0,0.6-0.4c0.2-1.3,0.5-2.7,0.7-4c0.1-0.4-0.1-0.4-0.4-0.4
		c-5.1,0-10.2,0-15.4,0c-0.1,0-0.3,0-0.5,0c0.1,1.6,0.2,3.2,0.3,4.8c0.4,0,0.6-0.1,0.7-0.5c0.3-0.9,0.6-1.8,0.9-2.8
		c0.1-0.3,0.2-0.4,0.5-0.4c0.9,0,1.7,0,2.6,0C171.5,10.3,172.1,10.3,172.7,10.3z"/>
	<path class="st0" d="M125.9,27.3c0-0.9,0.1-1.9,0.2-2.8c0-0.5,0.1-1.1,0.1-1.6c-0.6,0-0.6,0-0.8,0.5c-0.4,0.9-0.9,1.8-1.3,2.7
		c-0.1,0.3-0.3,0.3-0.5,0.3c-1.9,0-3.8,0-5.7,0c-0.1,0-0.2,0-0.4,0c0-0.1,0-0.2,0-0.3c0-5.2,0-10.3,0-15.5c0-0.3,0.1-0.5,0.4-0.6
		c0.5-0.1,1-0.3,1.5-0.5c0-0.2,0-0.4-0.1-0.5c-2.2,0-4.4,0-6.5,0c-0.1,0.4,0.1,0.6,0.4,0.7c0.3,0.1,0.7,0.2,1,0.3
		c0.3,0.1,0.5,0.3,0.5,0.7c0,5.1,0,10.2,0,15.3c0,0.4-0.1,0.5-0.5,0.6c-0.5,0.1-1,0.3-1.5,0.5c0,0.2,0,0.4,0.1,0.5
		c0.6,0,1.1,0,1.6,0c3.7,0,7.4,0,11,0C125.8,27.7,125.9,27.6,125.9,27.3z"/>
	<path class="st0" d="M131.4,40.2c-1.8,0-3.7,0-5.5,0.1c-1.4,0-2.9,0.2-4.3,0.3c-1.7,0.1-3.4,0.3-5.1,0.5c-1.2,0.1-2.5,0.3-3.7,0.4
		c0,0,0,0,0,0.1c8.4,0,16.8,0,25.3,0c-0.4-0.4-0.9-0.6-1.3-0.7C134.9,40.3,133.2,40.2,131.4,40.2z"/>
	<path class="st0" d="M260.5,40.5c0.2,0.1,0.4,0.3,0.6,0.3c1,0.2,1.9,0.4,2.9,0.5c1.7,0.1,3.4,0.2,5.1,0.3c5.2,0.1,10.4,0,15.6-0.7
		c0.5-0.1,1-0.2,1.5-0.3c0,0,0-0.1,0-0.1C277.6,40.5,269,40.5,260.5,40.5z"/>
	<g>
		<path class="st0" d="M156,38.5c-0.2,0-0.3-0.1-0.4-0.1c-0.7,0-0.7,0-1,0.7c-0.4,0.8-0.7,1.7-1.1,2.6c-0.4-1-0.8-2-1.2-2.9
			c0-0.1-0.1-0.3-0.2-0.3c-0.3,0-0.7,0-1,0c0,0,0,0.1,0,0.1c0.1,0.1,0.3,0.1,0.4,0.2c0,0.9,0,1.7,0,2.6c0,0.4,0.3,1-0.5,1.2
			c0.5,0,0.9,0,1.3,0c-0.2-0.1-0.4-0.2-0.4-0.4c0-0.9,0-1.9,0-2.8c0.1,0.1,0.2,0.2,0.2,0.3c0.4,0.9,0.7,1.8,1.1,2.6
			c0,0.1,0.1,0.2,0.2,0.3c0.1-0.1,0.2-0.2,0.3-0.3c0.2-0.4,0.4-0.9,0.5-1.3c0.2-0.6,0.5-1.1,0.7-1.7c0.1,0.8,0.1,1.6,0.1,2.3
			c0,0.3,0.1,0.7-0.4,0.9c0.5,0,0.9,0,1.4,0c-0.4-0.1-0.4-0.5-0.4-0.8c0-0.8,0-1.6,0-2.3C155.6,39,155.5,38.6,156,38.5z"/>
		<path class="st0" d="M211,38.4c-0.6,0-1.1,0-1.7,0c-0.1,0-0.1,0-0.2,0c0.5,0.1,0.4,0.5,0.4,0.8c0,0.8,0,1.6,0,2.3
			c0,0.4,0.1,0.8-0.4,0.9c0.7,0,1.5,0.1,2.2,0c0.9-0.1,1.5-0.7,1.7-1.6C213.3,39.3,212.6,38.4,211,38.4z M212.3,41.1
			c-0.2,0.9-1,1.4-2,1.2c-0.1,0-0.2-0.2-0.2-0.2c0-1.1,0-2.2,0-3.4c0.4,0,0.7,0,1.1,0c0.6,0.1,1,0.4,1.1,1
			C212.4,40.1,212.4,40.6,212.3,41.1z"/>
		<path class="st0" d="M203.9,38.8c0,0.8,0,1.7,0,2.7c-0.8-0.9-1.4-1.8-2.1-2.6c-0.4-0.5-0.6-0.5-1.2-0.4c0.4,0.3,0.4,0.3,0.4,0.9
			c0,0.7,0,1.4,0,2c0,0.4,0.2,0.9-0.4,1.2c0.4,0,0.8,0,1.1,0c-0.6-0.2-0.4-0.6-0.4-0.9c0-0.5,0-1,0-1.4c0-0.3,0-0.5,0-0.9
			c0.9,1.1,1.7,2.1,2.5,3.1c0.1,0.1,0.2,0.1,0.3,0.2c0-0.1,0.1-0.2,0.1-0.4c0-0.9,0-1.8,0-2.7c0-0.4-0.2-0.9,0.4-1.1
			c-0.4,0-0.8,0-1.2,0C203.6,38.6,203.9,38.7,203.9,38.8z"/>
		<path class="st0" d="M160.1,40.3c0.1-0.1,0.2-0.1,0.2-0.2c0.4-0.2,0.5-0.6,0.4-1c-0.1-0.4-0.4-0.6-0.7-0.7c-0.7,0-1.4,0-2.2,0
			c0.4,0.3,0.4,0.3,0.4,0.9c0,0.8,0,1.5,0,2.3c0,0.4,0.1,0.8-0.4,0.9c0.8,0,1.5,0,2.2-0.1c0.6-0.1,0.8-0.5,0.8-1.1
			C160.9,40.8,160.7,40.6,160.1,40.3z M158.9,38.7c0.4-0.1,0.8-0.1,1.1,0.3c0.2,0.3,0.2,0.7,0,1c-0.3,0.4-0.7,0.3-1.1,0.3
			C158.9,39.7,158.9,39.2,158.9,38.7z M160.2,41.7c-0.1,0.5-0.8,0.9-1.3,0.6c-0.1,0-0.1-0.2-0.1-0.3c0-0.5,0-1,0-1.5
			C159.9,40.3,160.4,40.8,160.2,41.7z"/>
		<path class="st0" d="M173.9,38.8c0,0.8,0,1.7,0,2.7c-0.7-0.9-1.4-1.7-2.1-2.6c-0.3-0.5-0.7-0.6-1.3-0.4c0.6,0.1,0.5,0.5,0.5,0.8
			c0,0.8,0,1.5,0,2.3c0,0.4,0.1,0.8-0.4,0.9c0.4,0,0.8,0,1.2,0c-0.2-0.1-0.4-0.3-0.4-0.4c0-0.9,0-1.8,0-2.9c0.2,0.2,0.2,0.3,0.3,0.4
			c0.7,0.9,1.4,1.8,2.1,2.7c0.1,0.1,0.2,0.2,0.4,0.3c0-1.2,0-2.2,0-3.2c0-0.4-0.1-0.8,0.4-1c-0.4,0-0.8,0-1.2,0
			C173.7,38.6,173.9,38.7,173.9,38.8z"/>
		<path class="st0" d="M240.2,38.8c0,0.8,0,1.7,0,2.6c-0.2-0.2-0.3-0.3-0.4-0.4c-0.6-0.7-1.2-1.5-1.8-2.2c-0.4-0.5-0.6-0.5-1.2-0.3
			c0.4,0.3,0.4,0.3,0.4,0.8c0,0.8,0,1.5,0,2.3c0,0.4,0.1,0.8-0.4,0.9c0.4,0,0.8,0,1.2,0c-0.2-0.1-0.4-0.3-0.4-0.4c0-0.9,0-1.8,0-2.9
			c0.2,0.2,0.2,0.3,0.3,0.4c0.7,0.9,1.4,1.8,2.1,2.7c0.1,0.1,0.2,0.2,0.4,0.3c0-1.2,0-2.2,0-3.3c0-0.4-0.1-0.8,0.4-0.9
			c-0.4,0-0.8,0-1.2,0C239.9,38.6,240.2,38.7,240.2,38.8z"/>
		<path class="st0" d="M196.7,38.3c-1.4,0-2.2,0.8-2.2,2.2c0,1.3,0.8,2.1,2.1,2.1c1.3,0,2.2-0.9,2.2-2.3
			C198.8,39,198.1,38.3,196.7,38.3z M198.2,40.5c0,0.2,0,0.5-0.1,0.7c-0.2,0.7-0.5,1.1-1.2,1.1c-0.8,0-1.3-0.3-1.5-1
			c-0.2-0.6-0.2-1.3,0-1.9c0.2-0.6,0.5-0.9,1.1-0.9c0.6-0.1,1.2,0,1.5,0.7C198.1,39.6,198.1,40.1,198.2,40.5
			C198.2,40.5,198.2,40.5,198.2,40.5z"/>
		<path class="st0" d="M249.7,38.3c-1.4,0-2.2,0.8-2.2,2.2c0,1.3,0.8,2.1,2.1,2.1c1.4,0,2.2-0.9,2.2-2.3
			C251.8,39.1,251,38.3,249.7,38.3z M251.2,40.5c0,0.3,0,0.5-0.1,0.8c-0.2,0.7-0.6,1.1-1.2,1.1c-0.8,0-1.3-0.3-1.5-1
			c-0.2-0.6-0.2-1.3,0-2c0.2-0.5,0.5-0.9,1.1-0.9c0.6-0.1,1.2,0,1.5,0.7C251,39.6,251.1,40.1,251.2,40.5
			C251.2,40.5,251.2,40.5,251.2,40.5z"/>
		<path class="st0" d="M148.9,41.5c-0.3-0.9-0.7-1.9-1-2.8c0-0.1-0.2-0.2-0.3-0.4c-0.1,0.1-0.2,0.2-0.3,0.3
			c-0.4,0.9-0.8,1.9-1.2,2.9c-0.2,0.4-0.2,0.8-0.7,1c0.4,0,0.8,0,1.3,0c-0.2-0.1-0.3-0.2-0.4-0.3c0.2-1.1,0.3-1.2,1.3-1.3
			c0.6,0,0.6,0.4,0.8,0.7c0.1,0.3,0.3,0.6-0.2,0.8c0.5,0,1,0,1.5,0C149.1,42.4,149.1,41.9,148.9,41.5z M146.9,40.7
			c0.2-0.5,0.4-1,0.6-1.6c0.2,0.6,0.4,1.1,0.6,1.6C147.6,40.7,147.3,40.7,146.9,40.7z"/>
		<path class="st0" d="M217.2,42.3c-0.4,0-0.8,0-1.2,0c0-0.6,0-1.1,0-1.7c0.5,0,1-0.3,1.2,0.5c0-0.4,0-0.8,0-1.2c0,0,0,0-0.1,0
			c-0.1,0.1-0.1,0.3-0.2,0.4c-0.3,0-0.7,0-1,0c0-0.5,0-1.1,0-1.6c0.5,0,0.9,0,1.3,0c0.1,0,0.2,0.4,0.3,0.6c0,0,0.1,0,0.1,0
			c0.1-0.3,0.1-0.6,0.2-0.9c-1,0-1.9,0-2.8,0c0.5,0.1,0.4,0.5,0.4,0.9c0,0.7,0,1.4,0,2.1c0,0.4,0.2,0.9-0.4,1.1c0.9,0,1.9,0,2.8,0
			c0-0.4,0-0.7,0-1c-0.2,0.2-0.2,0.4-0.3,0.5C217.4,42.1,217.2,42.2,217.2,42.3z"/>
		<path class="st0" d="M234.8,42c-0.1,0.1-0.2,0.2-0.2,0.2c-0.4,0-0.8,0-1.3,0c0-0.6,0-1.1,0-1.7c0.4,0.1,1-0.3,1.2,0.5
			c0-0.4,0-0.8,0-1.2c0,0,0,0-0.1,0c-0.1,0.1-0.1,0.3-0.2,0.4c-0.3,0-0.7,0-1,0c0-0.5,0-1,0-1.6c0.5,0,0.9,0,1.3,0
			c0.1,0.2,0.2,0.4,0.2,0.6c0,0,0.1,0,0.1,0c0.1-0.3,0.1-0.6,0.2-0.9c-1,0-1.9,0-2.8,0c0.5,0.1,0.4,0.5,0.4,0.8c0,0.8,0,1.5,0,2.3
			c0,0.4,0.1,0.8-0.4,1c0.9,0,1.9,0,2.8,0c0-0.3,0-0.7,0.1-1c0,0-0.1,0-0.1,0C234.9,41.7,234.9,41.9,234.8,42z"/>
		<path class="st0" d="M168.5,42.1c-0.1,0.1-0.2,0.2-0.3,0.2c-0.4,0-0.8,0-1.2,0c0-0.6,0-1.1,0-1.7c0.5,0,1-0.3,1.2,0.4
			c0-0.4,0-0.8,0-1.2c0,0,0,0-0.1,0c-0.1,0.2-0.1,0.3-0.2,0.4c-0.3,0-0.7,0-1,0c0-0.5,0-1,0-1.6c0.5,0,0.9,0,1.3,0
			c0.1,0.2,0.2,0.4,0.2,0.6c0,0,0.1,0,0.1,0c0.1-0.3,0.1-0.6,0.2-0.9c-1,0-1.9,0-2.8,0c0,0,0,0,0,0.1c0.1,0.1,0.2,0.1,0.4,0.2
			c0,1,0,2,0,3c0,0.6,0,0.6-0.5,0.9c1,0,1.9,0,2.9,0c0-0.3,0-0.7,0.1-1c0,0-0.1,0-0.1,0C168.7,41.7,168.6,41.9,168.5,42.1z"/>
		<path class="st0" d="M224.9,42.1c-0.1,0.1-0.2,0.2-0.3,0.2c-0.4,0-0.8,0-1.2,0c0-0.6,0-1.1,0-1.7c0.5,0.1,1-0.2,1.2,0.5
			c0-0.4,0-0.8,0-1.1c0,0-0.1,0-0.1,0c-0.1,0.1-0.1,0.3-0.2,0.4c-0.3,0-0.6,0-1,0c0-0.5,0-1,0-1.6c0.2,0,0.4,0,0.6,0
			c0.7,0,0.7,0,0.9,0.6c0,0,0.1,0,0.1,0.1c0.1-0.3,0.1-0.6,0.2-0.9c-1,0-1.9,0-2.8,0c0.5,0.1,0.4,0.5,0.4,0.9c0,0.8,0,1.5,0,2.3
			c0,0.4,0.1,0.8-0.4,0.9c0.9,0,1.9,0,2.8,0c0-0.3,0-0.7,0.1-1c0,0-0.1,0-0.1,0C225.1,41.7,225,41.9,224.9,42.1z"/>
		<path class="st0" d="M184.1,41.6c-0.4-1.1-0.8-2.2-1.2-3.4c-0.2,0.2-0.3,0.3-0.4,0.4c-0.4,0.8-0.7,1.6-1,2.4
			c-0.2,0.5-0.3,1.2-1,1.4c0.5,0,0.9,0,1.3,0c-0.5-0.2-0.3-0.5-0.2-0.8c0.3-0.7,0.3-0.7,1-0.7c0.7,0,0.7,0,1,0.7
			c0.1,0.3,0.3,0.6-0.2,0.8c0.5,0,1,0,1.4,0C184.4,42.4,184.3,42,184.1,41.6z M182,40.7c0.2-0.5,0.4-1,0.6-1.6
			c0.2,0.6,0.4,1.1,0.6,1.6C182.8,40.7,182.4,40.7,182,40.7z"/>
		<path class="st0" d="M176.3,39.4c0.2-0.2,0.3-0.6,0.5-0.7c0.2-0.1,0.6,0,0.9,0c0,1,0,2,0,2.9c0,0.4,0,0.7-0.5,0.8c0,0,0,0,0,0.1
			c0.5,0,1,0,1.6,0c0,0,0.1-0.1,0.1-0.1c-0.7,0-0.6-0.5-0.6-0.9c0-0.8,0-1.5,0-2.3c0-0.2,0-0.4,0-0.6c0.3,0,0.7-0.1,0.9,0
			c0.2,0.1,0.2,0.5,0.3,0.7c0,0,0.1,0,0.1,0c0.1-0.3,0.1-0.7,0.2-1c-1.2,0-2.4,0-3.6,0C176.2,38.8,176.2,39.1,176.3,39.4z"/>
		<path class="st0" d="M242.5,39.4c0.2-0.2,0.3-0.6,0.5-0.7c0.2-0.1,0.6,0,0.9,0c0,1,0,2,0,2.9c0,0.4,0,0.7-0.5,0.8c0,0,0,0,0,0.1
			c0.5,0,1,0,1.6,0c-0.6-0.3-0.6-0.3-0.6-0.9c0-0.8,0-1.6,0-2.5c0-0.1,0-0.3,0-0.4c0.3,0,0.7-0.1,0.9,0c0.2,0.1,0.2,0.5,0.3,0.7
			c0,0,0.1,0,0.1,0c0.1-0.3,0.1-0.7,0.2-1c-1.3,0-2.4,0-3.6,0C242.5,38.8,242.5,39.1,242.5,39.4z"/>
		<path class="st0" d="M229.6,38.5c0.1,0.1,0.2,0.1,0.4,0.2c-0.4,1-0.8,2-1.2,3.1c-0.3-0.9-0.6-1.8-0.9-2.6
			c-0.1-0.3-0.2-0.6,0.2-0.8c-0.5,0-0.9,0-1.4,0c0,0-0.1,0.1-0.1,0.1c0.6,0,0.6,0.5,0.8,0.9c0.4,1,0.7,1.9,1.1,2.9
			c0,0.1,0.2,0.2,0.2,0.3c0.1-0.1,0.2-0.2,0.3-0.3c0.4-0.9,0.8-1.8,1.2-2.7c0.2-0.4,0.2-0.9,0.8-1.1C230.4,38.4,230,38.4,229.6,38.5
			C229.6,38.5,229.6,38.5,229.6,38.5z"/>
		<path class="st0" d="M186.9,41.2c-0.3-0.9-0.1-1.9,0.5-2.3c0.3-0.2,0.6-0.2,1-0.3c0.4,0,0.7,0.1,0.7,0.5c0,0.1,0.1,0.2,0.1,0.3
			c0,0,0.1,0,0.1,0c0.1-0.3,0.1-0.6,0.2-0.9c-1.3-0.5-2.7,0-3.2,1.1c-0.5,1-0.1,2.3,0.8,2.8c0.8,0.4,2,0.3,2.4-0.2
			c-0.3,0-0.6,0.1-0.9,0.1C187.9,42.3,187.2,41.9,186.9,41.2z"/>
		<path class="st0" d="M192.3,41.7c0-0.7,0-1.5,0-2.2c0-0.4-0.1-0.8,0.4-1c-0.5,0-0.9,0-1.4,0c0.5,0.1,0.4,0.5,0.4,0.8
			c0,0.8,0,1.6,0,2.4c0,0.3,0.1,0.8-0.4,0.9c0.5,0,0.9,0,1.4,0C192.3,42.4,192.3,42,192.3,41.7z"/>
		<path class="st0" d="M163.7,41.7c0-0.8,0-1.6,0-2.3c0-0.4-0.1-0.8,0.4-1c-0.5,0-0.9,0-1.4,0c0.4,0.1,0.4,0.4,0.4,0.7
			c0,0.7,0,1.5,0,2.2c0,0.4,0.2,0.9-0.4,1.1c0.5,0,0.9,0,1.4,0C163.7,42.4,163.7,42.1,163.7,41.7z"/>
	</g>
	<path class="st0" d="M196.1,38.1c0.4-0.2,0.8-0.3,1.3-0.5c-0.2-0.1-0.3-0.3-0.4-0.4c-0.3,0.3-0.7,0.5-1,0.7
		C196.1,38,196.1,38.1,196.1,38.1z"/>
	<path class="st0" d="M146.9,40.7c0.4,0,0.8,0,1.2,0c-0.2-0.5-0.4-1-0.6-1.6C147.2,39.7,147.1,40.2,146.9,40.7z"/>
	<g>
		<g>
			<path class="st1" d="M45.6,28.5c0.2,0,0.3,0,0.5,0c1.4-0.1,2.8-0.1,4.3-0.2c1.7-0.1,3.3-0.6,5-1C54.8,26,54,25,52.9,24.3
				c-1.1-0.7-2.3-1-3.5-0.8c-0.9,0.1-1.7,0.4-2.6,0.5c-1.4,0.3-2.6,1.8-2.4,3.4C44.5,28.2,44.9,28.5,45.6,28.5z"/>
			<path class="st1" d="M60.5,32.1c-1.3-0.5-2.6-0.4-3.8-0.1c-3.2,0.8-6.5,1.2-9.8,1.7c-0.7,0.1-1.4,0.2-2.1,0.4
				c-0.6,0.1-0.8,0.5-0.8,1.1c0,0.6,0,1.2,0.1,1.9c0,0.4,0.2,0.6,0.5,0.7c0.2,0,0.4,0.1,0.6,0c1.3-0.2,2.5-0.3,3.8-0.5
				c1.6-0.2,3.2-0.4,4.8-0.7c1.4-0.2,2.8-0.4,4.3-0.7c1.5-0.2,3-0.5,4.5-0.7c0.4-0.1,0.7-0.1,1.1-0.2c0,0,0,0,0,0
				C62.9,33.7,61.9,32.7,60.5,32.1z"/>
			<path class="st1" d="M45.6,19.3c0.4,0.3,0.9,0.3,1.3,0c0.1-0.1,0.2-0.1,0.2-0.1c-0.1-1.3-1-1.9-1.9-2.6c-0.1,0.5-0.2,0.9-0.2,1.3
				C44.9,18.6,45.2,19,45.6,19.3z"/>
			<path class="st1" d="M52.6,17c0.9,0.9,2,1.2,3.3,1c1-0.1,2.1-0.3,3.1-0.5c1.2-0.2,2.4-0.3,3.5-0.5c1.3-0.2,2.7-0.4,4-0.6
				c0.6-0.1,1.2-0.2,1.8-0.3c-0.1-0.1-0.1-0.2-0.1-0.3c-0.3-0.4-0.4-0.9-0.4-1.4c0.1-0.4,0.2-0.9,0.3-1.3c0.1-0.4,0.3-0.8,0.3-1.2
				c0.1-0.6-0.2-1-0.8-1.2c-0.2,0-0.4-0.1-0.6,0c-1,0.1-2.1,0.2-3.1,0.4c-2.1,0.3-4.2,0.6-6.3,0.9c-2.1,0.3-4.2,0.6-6.3,1
				c-0.8,0.1-1.7,0.3-2.5,0.5c0.1,0.1,0.2,0.2,0.3,0.3C50.3,14.8,51.5,15.9,52.6,17z"/>
			<path class="st1" d="M67.3,21C67.3,21,67.3,21,67.3,21c-0.8,0.1-1.5,0.2-2.2,0.3c-1.4,0.2-2.7,0.4-4.1,0.6
				c-0.8,0.1-1.6,0.2-2.5,0.4c0.3,0.4,0.5,0.9,0.8,1.2c1.2,1.7,2.8,2.5,4.9,2.3c0.5-0.1,1-0.2,1.6-0.3c0.6-0.1,1.2-0.2,1.8-0.3
				c0.7-0.2,1-0.5,1-1.2c0-0.6,0-1.3,0-1.9C68.5,21.3,68.2,21,67.3,21z"/>
			<path class="st1" d="M77,15.7l0.1,3C77.1,17.7,77,16.7,77,15.7C77,15.7,77,15.7,77,15.7z"/>
			<path class="st0" d="M96.6,8.1C96.6,8.1,96.6,8.1,96.6,8.1c-0.1-0.1-0.1-0.1-0.2-0.1c-1.1,0-2.2-0.1-3.3-0.1
				c-1.3,0-2.5,0-3.8,0.1c-1.4,0.1-2.7,0.4-4.1,0.6c-0.5,0.1-1,0.1-1.5-0.3c-0.1-0.1-0.2-0.2-0.2-0.4c0.2-1.1-0.1-2-0.8-2.8
				c-0.4-0.5-0.8-1-1.2-1.5c-0.4-0.5-1-0.8-1.6-1.1c-0.2,0.4-0.5,0.7-0.7,1c-0.1,0.2-0.2,0.4-0.3,0.7C79,4.8,79,5.4,79,6
				c0,0.6,0,1.2,0,1.8c0,0.6-0.4,1-0.9,1.2C77.9,9,77.6,9,77.4,9c-0.4,0-0.6-0.3-0.7-0.7c0-0.2,0-0.5,0-0.7c0-1.8,0-3.7,0-5.5
				c0-1-0.6-1.7-1.5-2c-1.2-0.3-2.3-0.2-3.3,0.7c-0.5,0.5-0.8,1-1,1.6c-0.1,0.3-0.3,0.7-0.4,1c-0.4,0.8-1.1,1.4-2,1.5
				c-0.3,0-0.5,0.2-0.6,0.5c-0.2,0.7-0.7,1.1-1.5,1.2c-0.6,0.1-1.3,0.1-1.9,0.2c-1.1,0.1-2.3,0.2-3.4,0.3c-1.1,0.1-2.2,0.2-3.3,0.3
				c-1.4,0.1-2.8,0.3-4.1,0.5c-1.3,0.2-2.7,0.4-4,0.6c-0.8,0.1-1.6,0.3-2.4,0.4c-0.7,0.1-1.2-0.2-1.3-0.9c0-0.1,0-0.2,0-0.2
				C45.6,7,45,6.5,44.2,6.7c-0.8,0.1-1.6,0.3-2.4,0.4c-0.9,0.2-1.2,0.5-1.3,1.4c-0.1,0.7-0.1,1.5-0.1,2.2c0,11,0,22.1,0,33.1
				c0,0.7,0,1.3,0.1,2c0,0.6,0.4,1.1,1,1.3c0.5,0.1,1,0.1,1.5,0c0.5-0.1,0.9-0.5,1-1c0-0.2,0-0.4,0-0.6c0-0.9,0.4-1.4,1.2-1.7
				c0.1,0,0.2-0.1,0.3-0.1c3.1-0.7,6.1-1.4,9.2-2.1c3.7-0.8,7.4-1.7,11.1-2.5c0.6-0.1,1.3-0.3,1.9-0.3c0.8,0,1.3,0.4,1.5,1.1
				c0.1,0.3,0.1,0.5,0.1,0.8c0,0.8,0,1.6,0,2.4c0,0.4,0,0.7,0.1,1.1c0.1,0.8,0.8,1.3,1.5,1.2c1.3-0.2,2.7-0.4,3.9-0.8
				c1.2-0.4,1.8-1.2,1.9-2.4c0.1-1.4,0.2-2.9,0.3-4.3c0-0.3,0-0.6,0.1-0.9c0.1-0.4,0.3-0.8,0.7-0.8c0.4-0.1,0.8-0.1,1.2-0.1
				c0.8,0,1.1,0.3,1.4,1.1c0.1,0.2,0.1,0.5,0.2,0.7c0.2,1.4,0.4,2.7,0.6,4.1c0.2,1.1,0.8,1.6,1.8,1.5c0.6,0,1-0.4,1.2-1
				c0.1-0.2,0.1-0.4,0.1-0.6c0-1.1,0-2.2,0-3.3c0-0.6,0-1.2,0-1.9c0-0.7,0.5-1.1,1.1-1.1c0.9-0.1,1.8-0.2,2.6-0.4
				c1.1-0.3,2.2-0.8,2.9-1.7c0.4-0.5,0.7-1,0.9-1.6c-0.3-0.2-0.6-0.3-0.9-0.5c-0.2-0.1-0.4-0.2-0.6-0.2c-1,0-1.9-0.1-2.9,0
				c-0.6,0-1.3,0.1-1.9,0.1c-0.9,0-1.4-0.4-1.5-1.3c-0.2-1.5-0.3-3.1-0.3-4.6c0-0.7,0.4-1.2,1.1-1.3c0.3-0.1,0.6-0.1,0.9-0.1
				c1-0.2,2-0.3,3-0.5c0.4-0.1,0.8-0.2,1.2-0.2c0-0.1,0-0.2,0-0.2c-0.2-0.5-0.2-1.1-0.1-1.6c0.2-0.9-0.1-1.2-1-1.4
				c-0.5-0.1-0.9-0.1-1.4-0.1c-1,0-1.9,0-2.9,0c-0.7,0-1.1-0.3-1.1-1.1c0-0.5,0-1-0.1-1.6c0-0.9-0.1-1.9-0.1-2.8
				c0-0.8,0.4-1.3,1.2-1.4c0.3,0,0.5-0.1,0.8-0.1c1-0.1,2.1-0.1,3.1-0.2c1.5-0.2,3.1-0.4,4.6-0.6c0.6-0.1,1.1-0.3,1.4-0.8
				c0.1-0.2,0.2-0.4,0.3-0.6c0.2-0.5,0.6-0.8,1-1c0.1-0.1,0.3-0.1,0.4-0.2C96.8,8.8,96.8,8.8,96.6,8.1z M51.4,13
				c2.1-0.3,4.2-0.7,6.3-1c2.1-0.3,4.2-0.6,6.3-0.9c1-0.1,2.1-0.2,3.1-0.4c0.2,0,0.4,0,0.6,0c0.6,0.1,0.9,0.6,0.8,1.2
				c-0.1,0.4-0.2,0.8-0.3,1.2c-0.1,0.4-0.3,0.9-0.3,1.3c-0.1,0.5,0.1,1,0.4,1.4c0,0.1,0.1,0.1,0.1,0.3c-0.6,0.1-1.2,0.2-1.8,0.3
				c-1.3,0.2-2.7,0.4-4,0.6c-1.2,0.2-2.4,0.3-3.5,0.5c-1,0.2-2.1,0.3-3.1,0.5c-1.3,0.2-2.4-0.1-3.3-1c-1.1-1.1-2.3-2.2-3.4-3.3
				c-0.1-0.1-0.2-0.1-0.3-0.3C49.8,13.3,50.6,13.1,51.4,13z M45,18c0.1-0.4,0.2-0.9,0.2-1.3c0.9,0.7,1.8,1.3,1.9,2.6
				c-0.1,0-0.1,0.1-0.2,0.1c-0.4,0.3-0.9,0.3-1.3,0C45.2,19,44.9,18.6,45,18z M46.8,24c0.9-0.2,1.7-0.4,2.6-0.5
				c1.3-0.2,2.5,0.1,3.5,0.8c1.1,0.7,1.9,1.7,2.4,2.9c-1.7,0.4-3.3,0.9-5,1c-1.4,0-2.8,0.1-4.3,0.2c-0.2,0-0.3,0-0.5,0
				c-0.7,0-1.1-0.3-1.2-1C44.2,25.8,45.4,24.3,46.8,24z M63.6,35c-0.4,0.1-0.7,0.1-1.1,0.2c-1.5,0.2-3,0.5-4.5,0.7
				c-1.4,0.2-2.8,0.4-4.3,0.7c-1.6,0.2-3.2,0.5-4.8,0.7c-1.3,0.2-2.5,0.4-3.8,0.5c-0.2,0-0.4,0-0.6,0c-0.3-0.1-0.5-0.3-0.5-0.7
				c0-0.6,0-1.2-0.1-1.9c0-0.6,0.2-0.9,0.8-1.1c0.7-0.2,1.4-0.3,2.1-0.4c3.3-0.5,6.6-0.9,9.8-1.7c1.3-0.3,2.6-0.4,3.8,0.1
				C61.9,32.7,62.9,33.7,63.6,35C63.6,35,63.6,35,63.6,35z M68.5,24.1c0,0.7-0.3,1.1-1,1.2c-0.6,0.1-1.2,0.2-1.8,0.3
				c-0.5,0.1-1,0.2-1.6,0.3c-2.1,0.2-3.7-0.6-4.9-2.3c-0.3-0.4-0.5-0.8-0.8-1.2c0.9-0.1,1.7-0.3,2.5-0.4c1.4-0.2,2.7-0.4,4.1-0.6
				c0.7-0.1,1.4-0.2,2.2-0.3c0,0,0,0,0.1,0c0.9,0,1.2,0.3,1.2,1.2C68.5,22.8,68.5,23.4,68.5,24.1z M77,15.7c0-0.5,0-1,0-1.5
				c0-0.9,0.4-1.3,1.3-1.4c0.9-0.1,1.5,0.4,1.5,1.3c0,0.3,0,0.7,0.1,1c0.1,0.6,0,1.1-0.1,1.7c-0.1,0.6-0.2,1.1-0.2,1.7
				c0,0.3-0.1,0.5-0.1,0.8c-0.1,0.4-0.3,0.7-0.7,0.8c-0.4,0.1-0.8,0.1-1.1-0.2c-0.3-0.3-0.5-0.7-0.5-1.1L77,15.7z M80.3,30.6
				c0,0.5-0.3,0.9-0.8,1c-0.5,0.1-1.1,0.1-1.6,0.1c-0.5,0-0.7-0.3-0.8-0.8c0-0.5,0-1,0-1.5c0-0.7,0-1.3,0-2c0,0,0,0,0,0c0-1,0-2,0-3
				c0-0.8,0.3-1.2,1.1-1.3c0.3,0,0.7,0,1,0c0.5,0.1,0.7,0.4,0.8,0.9c0.1,1.9,0.2,3.9,0.3,5.8C80.3,30.1,80.3,30.4,80.3,30.6z"/>
		</g>
		<path class="st0" d="M22.9,7.5c-0.1-0.9-0.2-1.7-0.3-2.6c0-0.2-0.1-0.4-0.2-0.6c-0.2-0.2-0.5-0.4-0.7-0.7
			c-0.3,0.2-0.5,0.4-0.7,0.7c-0.1,0.2-0.3,0.4-0.3,0.6c-0.1,0.5-0.1,0.9-0.1,1.4c0,0.5,0,1,0,1.5c0,0.6-0.3,1-0.9,1.2
			c-0.2,0.1-0.4,0.1-0.6,0.1c-1.4,0.1-2.8,0.1-4.1,0.2c-1.5,0.1-2.9,0.1-4.4,0.2c-1.4,0-2.8,0.1-4.2,0.1c-0.7,0-1.5,0.1-2.2,0.3
			c-1.4,0.3-2.7,0.9-4,1.5c0,0,0,0,0,0c0.4,0.4,0.7,0.8,1.1,1.2c-0.3,0.4-0.6,0.9-0.9,1.4c0.2,0,0.3,0.1,0.4,0.1
			c1.6,0.5,3.3,0.9,5,0.9c3.3,0,6.6,0,9.9,0c1.2,0,2.4,0,3.6,0c0.8,0,1.2,0.2,1.3,0.9c0.1,0.9,0.2,1.8,0.2,2.7
			c0,0.5-0.2,0.7-0.7,0.8c-0.3,0.1-0.7,0.1-1,0.1c-2.8,0-5.7,0-8.5,0c-1,0-2.1,0-3.1,0.1c-1,0.1-1.9,0.6-2.7,1.2
			c-0.3,0.3-0.5,0.6-0.2,1c0.2,0.3,0.3,0.8,0.5,1.1c0.3,0.5,0.6,0.9,1.2,1c0.9,0.1,1.8,0.2,2.7,0.2c1.9,0.1,3.7,0.2,5.6,0.3
			c1.5,0.1,3,0,4.5,0.1c1.2,0,1.8,0.7,1.9,1.9c0.1,1.3,0.1,2.6,0.1,4c0,0.8-0.5,1.2-1.3,1.3c-0.5,0-1,0.1-1.6,0.1
			c-1.5,0.1-3,0.1-4.5,0.2c-1.4,0.1-2.7,0.1-4.1,0.2c-0.4,0-0.8,0-1.2,0.1c-1.3,0.3-2.2,1.5-2.2,2.8c0,0.3,0.1,0.6,0.4,0.8
			c1,0.4,2,0.9,3.2,0.9c2,0,3.9,0.2,5.9,0.2c1.5,0.1,3,0.1,4.5,0.2c0.7,0,1,0.3,1.2,0.9c0.1,0.2,0.1,0.3,0.1,0.5
			c0.1,0.4,0.2,0.7,0.4,1c0.4,0.5,0.7,0.5,1.2,0.1c0.6-0.4,0.7-1,0.7-1.6c0-9.2-0.1-18.5-0.1-27.7C23.1,9.5,23,8.5,22.9,7.5z"/>
		<path class="st0" d="M27.3,15c0.1,0.9,0.1,1.7,0.2,2.6c0.1,1.1,0.2,2.3,0.2,3.4c0.1,0.9,0.1,1.8,0.2,2.6c0.1,1.2,0.2,2.4,0.2,3.5
			c0.1,0.9,0.1,1.7,0.2,2.6c0.1,1.1,0.2,2.3,0.2,3.4c0.1,1.2,0.2,2.3,0.2,3.5c0.1,1.2,0.2,2.3,0.1,3.5c-0.1,0.7,0,1.5,0,2.2
			c0,1,0.5,1.6,1.4,1.8c0.7,0.2,1.5,0.2,2.3,0.1c0.5-0.1,0.9-0.4,1.1-0.9c0.1-0.3,0.1-0.7,0.1-1c0-1.2,0-2.4,0-3.6
			c0-1.2,0.1-2.3,0.2-3.5c0.2-1.5,0.4-3.1,0.3-4.6c0-0.6,0-1.1,0-1.7c0-0.8-0.1-1.7-0.2-2.5c-0.1-0.9-0.2-1.8-0.3-2.6
			c-0.1-1-0.2-2-0.3-3c-0.1-0.8-0.1-1.6-0.2-2.4c-0.1-1-0.2-2-0.3-3c-0.1-0.7-0.1-1.4-0.3-2.2c-0.1-0.5-0.3-1-0.5-1.5
			c-0.2-0.5-0.3-1-0.2-1.6c0.2-1,0.2-2,0-3.1c-0.3-1.4-0.8-2.7-1.3-4c-0.2-0.4-0.5-0.7-0.8-1c-0.3-0.3-0.6-0.3-0.9-0.1
			c-0.5,0.3-0.9,0.7-1.1,1.2c-0.6,1.3-0.9,2.7-0.9,4.1c0,1.5,0.1,3,0.1,4.5C27.1,12.8,27.2,13.9,27.3,15z"/>
		<g>
			<path class="st0" d="M21.4,26.3c-1.3,0.8-2.6,1.9-3.6,4l0.4,0.2c0.7-1.4,1.5-2.4,2.4-3.1c-0.8,1.3-1.5,2.6-1.8,4l0.5,0.1
				c0.4-1.8,1.4-3.4,2.5-5L21.4,26.3z M15.3,26.5L15,26.8c0.9,1.3,1.7,2.3,1.7,3.5l0.5,0c0-0.9-0.4-1.7-0.9-2.5
				c0.5,0.4,0.9,0.8,1.1,1.4l0.4-0.2C17.3,27.8,16.2,27.3,15.3,26.5z M23,29.7c-0.4,0-0.8,0.2-1.1,0.4c-0.9,0.6-1.4,1.7-1.7,2.3
				l0.4,0.2c0.3-0.6,0.8-1.6,1.5-2.1c0.4-0.2,0.7-0.4,1.2-0.3c0.2,0,0.5,0.1,0.8,0.3c-0.3,0-0.7,0-1,0.2c-0.8,0.3-1.5,1.2-1.9,2.8
				l0.5,0.1c0.4-1.5,1.1-2.2,1.7-2.5c0.6-0.3,1.2-0.1,1.7,0.1l0.3-0.4c-0.6-0.7-1.3-1-1.8-1.1C23.2,29.7,23.1,29.6,23,29.7z
				 M15.6,30.6L15.4,31c2,1.2,2.7,2.2,3.1,3.4l0.5-0.1c-0.3-1-0.8-1.9-1.9-2.8c2,0.8,3.5,2.1,4.1,4.4l0.5-0.1
				C20.8,32.7,18.5,31.3,15.6,30.6z M8.2,31.2l-0.1,0L8,31.3c0,0,0,0.1,0,0.1c0,0,0,0,0,0l0,0.1L8,31.6c0,0,0,0,0,0c0,0,0,0,0,0
				c0,0.1,0.1,0.2,0.1,0.3c0.1,0.3,0.2,0.7,0.4,1.2c0.3,1,0.6,2.5,0.6,3.9l0.5,0c0-1.5-0.3-3-0.6-4.1c0,0,0,0,0,0
				c0.4,0.7,0.8,1.3,1.1,1.9l0.4-0.2c-0.4-0.9-1.1-2-2.1-3.4c0,0,0,0,0,0c0,0,0,0,0-0.1c0,0,0,0,0,0C8.3,31.2,8.3,31.2,8.2,31.2
				C8.3,31.2,8.2,31.2,8.2,31.2z M23.8,31.5L23.2,32c-1.1,0.9-1.3,1.5-1.8,2.5l0.4,0.2c0.3-0.7,0.6-1.2,1-1.7
				c-0.6,2.4-0.4,3.5-0.7,5.4l0.5,0.1c0.3-2.1-0.1-3.1,0.9-6.2L23.8,31.5z M14.1,31.9c-0.1,0-0.2,0-0.3,0L13.3,32l0.3,0.3
				c1.1,1.1,1.6,2.2,1.8,3.2c0.2,1,0,2-0.2,2.9l0.5,0.1c0.2-1,0.4-2,0.2-3.1c-0.2-1-0.6-2-1.5-3c0.5,0.1,1,0.4,1.5,1l0.4-0.3
				C15.5,32.4,14.8,31.9,14.1,31.9z M16.8,32.2l-0.3,0.3c1.3,1.4,1.3,2.8,1.3,4.1l0.5,0C18.1,35.4,18.2,33.7,16.8,32.2z M12.4,32.7
				c0,0-1.2,1.1-2,3.1l0.4,0.2c0.2-0.6,0.5-1.1,0.8-1.6c-0.2,0.8-0.2,1.4-0.2,2.1l0.5,0c0-1.1-0.1-1.9,0.8-3.5L12.4,32.7z
				 M16.4,33.2L16,33.9l0.4,0.2l0.4-0.7L16.4,33.2z M13.9,34.1l-0.4,0.2c0.4,1.5,0.6,2.9,0.3,4.2l0.5,0.1c0.2-1.1,0.1-2.2-0.2-3.4
				c0.2,0.3,0.3,0.7,0.5,1.5l0.5-0.1C14.7,35.1,14.5,34.7,13.9,34.1z M6.3,34.1l-0.2,0.4c0,0,1.4,1.4,1.6,4.1l0.5,0
				c-0.1-1.8-0.8-2.9-1.2-3.6c0.4,0.2,0.9,0.5,1.4,1.1l0.4-0.3C7.9,34.7,7.1,34.4,6.3,34.1z M12.9,34.7c-0.1,0.6-0.2,1-0.4,1.4
				L12.1,36c-0.1,0.5-0.1,0.9,0,1.2l0.1,0.9l0.4-0.8c0.1-0.3,0.2-0.6,0.4-0.9c0.1,0.9,0.2,1.7,0.4,2.3l0.5-0.1
				c-0.3-0.9-0.5-2-0.4-3.8L12.9,34.7z M19.9,36.1l-0.1,0.5c-0.2,0.8-0.4,1.7-0.7,2.1l0.4,0.3c0.3-0.4,0.4-1,0.6-1.5
				c0.2,0.6,0.2,1.4,0.2,2.3l0.5,0c0-1.3,0-2.5-0.6-3.2L19.9,36.1z M10.2,37l0,0.7c0,0.4-0.1,0.7-0.1,1s-0.2,0.4-0.3,0.5l0.3,0.4
				c0.2-0.2,0.4-0.4,0.5-0.7c0-0.1,0-0.4,0.1-0.5l0.1,0.2l0.4-0.3L10.2,37z M17.1,37.4c-0.3,0.8-0.8,1.3-0.9,2.9l0.5,0
				c0-0.9,0.2-1.4,0.4-1.8l0,0.8l0.5,0l-0.1-1.8L17.1,37.4z"/>
		</g>
		<g>
			<path class="st0" d="M37.7,30.4c-1.3,0.8-2.6,1.9-3.6,4l0.4,0.2c0.7-1.4,1.5-2.4,2.4-3.1c-0.8,1.3-1.5,2.6-1.8,4l0.5,0.1
				c0.4-1.8,1.4-3.4,2.5-5L37.7,30.4z M31.6,30.6l-0.4,0.3c0.9,1.3,1.7,2.3,1.7,3.5l0.5,0c0-0.9-0.4-1.7-0.9-2.5
				c0.5,0.4,0.9,0.8,1.1,1.4l0.4-0.2C33.6,32,32.5,31.4,31.6,30.6z M39.3,33.8c-0.4,0-0.8,0.2-1.1,0.4c-0.9,0.6-1.4,1.7-1.7,2.3
				l0.4,0.2c0.3-0.6,0.8-1.6,1.5-2.1c0.4-0.2,0.7-0.4,1.2-0.3c0.2,0,0.5,0.1,0.8,0.3c-0.3,0-0.7,0-1,0.2c-0.8,0.3-1.5,1.2-1.9,2.8
				l0.5,0.1c0.4-1.5,1.1-2.2,1.7-2.5s1.2-0.1,1.7,0.1l0.3-0.4c-0.6-0.7-1.3-1-1.8-1.1C39.6,33.8,39.4,33.8,39.3,33.8z M32,34.7
				l-0.2,0.4c2,1.2,2.7,2.2,3.1,3.4l0.5-0.1c-0.3-1-0.8-1.9-1.9-2.8c2,0.8,3.5,2.1,4.1,4.4l0.5-0.1C37.1,36.9,34.8,35.4,32,34.7z
				 M24.5,35.3l-0.1,0l-0.1,0.1c0,0,0,0.1,0,0.1c0,0,0,0,0,0l0,0.1l0.1,0.1c0,0,0,0,0,0c0,0,0,0,0,0c0,0.1,0.1,0.2,0.1,0.3
				c0.1,0.3,0.2,0.7,0.4,1.2c0.3,1,0.6,2.5,0.6,3.9l0.5,0c0-1.5-0.3-3-0.6-4.1c0,0,0,0,0,0c0.4,0.7,0.8,1.3,1.1,1.9l0.4-0.2
				c-0.4-0.9-1.1-2-2.1-3.4c0,0,0,0,0,0c0,0,0,0,0-0.1c0,0,0,0,0,0C24.6,35.4,24.6,35.3,24.5,35.3C24.6,35.3,24.5,35.3,24.5,35.3z
				 M40.1,35.6l-0.6,0.5c-1.1,0.9-1.3,1.5-1.8,2.5l0.4,0.2c0.3-0.7,0.6-1.2,1-1.7c-0.6,2.4-0.4,3.5-0.7,5.4l0.5,0.1
				c0.3-2.1-0.1-3.1,0.9-6.2L40.1,35.6z M30.4,36c-0.1,0-0.2,0-0.3,0l-0.5,0.1l0.3,0.3c1.1,1.1,1.6,2.2,1.8,3.2c0.2,1,0,2-0.2,2.9
				l0.5,0.1c0.2-1,0.4-2,0.2-3.1c-0.2-1-0.6-2-1.5-3c0.5,0.1,1,0.4,1.5,1l0.4-0.3C31.9,36.5,31.2,36.1,30.4,36z M33.1,36.3l-0.3,0.3
				c1.3,1.4,1.3,2.8,1.3,4.1l0.5,0C34.5,39.5,34.5,37.8,33.1,36.3z M28.7,36.8c0,0-1.2,1.1-2,3.1l0.4,0.2c0.2-0.6,0.5-1.1,0.8-1.6
				c-0.2,0.8-0.2,1.4-0.2,2.1l0.5,0c0-1.1-0.1-1.9,0.8-3.5L28.7,36.8z M32.7,37.3L32.3,38l0.4,0.2l0.4-0.7L32.7,37.3z M30.2,38.2
				l-0.4,0.2c0.4,1.5,0.6,2.9,0.3,4.2l0.5,0.1c0.2-1.1,0.1-2.2-0.2-3.4c0.2,0.3,0.3,0.7,0.5,1.5l0.5-0.1
				C31.1,39.2,30.8,38.9,30.2,38.2z M22.7,38.3l-0.2,0.4c0,0,1.4,1.4,1.6,4.1l0.5,0c-0.1-1.8-0.8-2.9-1.2-3.6
				c0.4,0.2,0.9,0.5,1.4,1.1l0.4-0.3C24.2,38.8,23.4,38.5,22.7,38.3z M29.2,38.8c-0.1,0.6-0.2,1-0.4,1.4l-0.4-0.1
				c-0.1,0.5-0.1,0.9,0,1.2l0.1,0.9l0.4-0.8c0.1-0.3,0.2-0.6,0.4-0.9c0.1,0.9,0.2,1.7,0.4,2.3l0.5-0.1c-0.3-0.9-0.5-2-0.4-3.8
				L29.2,38.8z M36.2,40.2l-0.1,0.5c-0.2,0.8-0.4,1.7-0.7,2.1l0.4,0.3c0.3-0.4,0.4-1,0.6-1.5c0.2,0.6,0.2,1.4,0.2,2.3l0.5,0
				c0-1.3,0-2.5-0.6-3.2L36.2,40.2z M26.5,41.1l0,0.7c0,0.4-0.1,0.7-0.1,1s-0.2,0.4-0.3,0.5l0.3,0.4c0.2-0.2,0.4-0.4,0.5-0.7
				c0-0.1,0-0.4,0.1-0.5l0.1,0.2l0.4-0.3L26.5,41.1z M33.5,41.5c-0.3,0.8-0.8,1.3-0.9,2.9l0.5,0c0-0.9,0.2-1.4,0.4-1.8l0,0.8l0.5,0
				l-0.1-1.8L33.5,41.5z"/>
		</g>
		<g>
			<path class="st0" d="M97,30.4c-1.3,0.8-2.6,1.9-3.6,4l0.4,0.2c0.7-1.4,1.5-2.4,2.4-3.1c-0.8,1.3-1.5,2.6-1.8,4l0.5,0.1
				c0.4-1.8,1.4-3.4,2.5-5L97,30.4z M91,30.6l-0.4,0.3c0.9,1.3,1.7,2.3,1.7,3.5l0.5,0c0-0.9-0.4-1.7-0.9-2.5
				c0.5,0.4,0.9,0.8,1.1,1.4l0.4-0.2C92.9,32,91.8,31.4,91,30.6z M98.6,33.8c-0.4,0-0.8,0.2-1.1,0.4c-0.9,0.6-1.4,1.7-1.7,2.3
				l0.4,0.2c0.3-0.6,0.8-1.6,1.5-2.1c0.4-0.2,0.7-0.4,1.2-0.3c0.2,0,0.5,0.1,0.8,0.3c-0.3,0-0.7,0-1,0.2c-0.8,0.3-1.5,1.2-1.9,2.8
				l0.5,0.1c0.4-1.5,1.1-2.2,1.7-2.5s1.2-0.1,1.7,0.1l0.3-0.4c-0.6-0.7-1.3-1-1.8-1.1C98.9,33.8,98.8,33.8,98.6,33.8z M91.3,34.7
				l-0.2,0.4c2,1.2,2.7,2.2,3.1,3.4l0.5-0.1c-0.3-1-0.8-1.9-1.9-2.8c2,0.8,3.5,2.1,4.1,4.4l0.5-0.1C96.4,36.9,94.1,35.4,91.3,34.7z
				 M83.8,35.3l-0.1,0l-0.1,0.1c0,0,0,0.1,0,0.1c0,0,0,0,0,0l0,0.1l0.1,0.1c0,0,0,0,0,0c0,0,0,0,0,0c0,0.1,0.1,0.2,0.1,0.3
				c0.1,0.3,0.2,0.7,0.4,1.2c0.3,1,0.6,2.5,0.6,3.9l0.5,0c0-1.5-0.3-3-0.6-4.1c0,0,0,0,0,0c0.4,0.7,0.8,1.3,1.1,1.9l0.4-0.2
				c-0.4-0.9-1.1-2-2.1-3.4c0,0,0,0,0,0c0,0,0,0,0-0.1c0,0,0,0,0,0C83.9,35.4,83.9,35.3,83.8,35.3C83.9,35.3,83.8,35.3,83.8,35.3z
				 M99.4,35.6l-0.6,0.5c-1.1,0.9-1.3,1.5-1.8,2.5l0.4,0.2c0.3-0.7,0.6-1.2,1-1.7c-0.6,2.4-0.4,3.5-0.7,5.4l0.5,0.1
				c0.3-2.1-0.1-3.1,0.9-6.2L99.4,35.6z M89.7,36c-0.1,0-0.2,0-0.3,0l-0.5,0.1l0.3,0.3c1.1,1.1,1.6,2.2,1.8,3.2s0,2-0.2,2.9l0.5,0.1
				c0.2-1,0.4-2,0.2-3.1c-0.2-1-0.6-2-1.5-3c0.5,0.1,1,0.4,1.5,1l0.4-0.3C91.2,36.5,90.5,36.1,89.7,36z M92.4,36.3l-0.3,0.3
				c1.3,1.4,1.3,2.8,1.3,4.1l0.5,0C93.8,39.5,93.8,37.8,92.4,36.3z M88,36.8c0,0-1.2,1.1-2,3.1l0.4,0.2c0.2-0.6,0.5-1.1,0.8-1.6
				c-0.2,0.8-0.2,1.4-0.2,2.1l0.5,0c0-1.1-0.1-1.9,0.8-3.5L88,36.8z M92,37.3L91.6,38l0.4,0.2l0.4-0.7L92,37.3z M89.5,38.2l-0.4,0.2
				c0.4,1.5,0.6,2.9,0.3,4.2l0.5,0.1c0.2-1.1,0.1-2.2-0.2-3.4c0.2,0.3,0.3,0.7,0.5,1.5l0.5-0.1C90.4,39.2,90.1,38.9,89.5,38.2z
				 M82,38.3l-0.2,0.4c0,0,1.4,1.4,1.6,4.1l0.5,0c-0.1-1.8-0.8-2.9-1.2-3.6c0.4,0.2,0.9,0.5,1.4,1.1l0.4-0.3
				C83.5,38.8,82.7,38.5,82,38.3z M88.5,38.8c-0.1,0.6-0.2,1-0.4,1.4l-0.4-0.1c-0.1,0.5-0.1,0.9,0,1.2l0.1,0.9l0.4-0.8
				c0.1-0.3,0.2-0.6,0.4-0.9c0.1,0.9,0.2,1.7,0.4,2.3l0.5-0.1c-0.3-0.9-0.5-2-0.4-3.8L88.5,38.8z M95.5,40.2l-0.1,0.5
				c-0.2,0.8-0.4,1.7-0.7,2.1l0.4,0.3c0.3-0.4,0.4-1,0.6-1.5c0.2,0.6,0.2,1.4,0.2,2.3l0.5,0c0-1.3,0-2.5-0.6-3.2L95.5,40.2z
				 M85.8,41.1l0,0.7c0,0.4-0.1,0.7-0.1,1c-0.1,0.3-0.2,0.4-0.3,0.5l0.3,0.4c0.2-0.2,0.4-0.4,0.5-0.7c0-0.1,0-0.4,0.1-0.5l0.1,0.2
				l0.4-0.3L85.8,41.1z M92.8,41.5c-0.3,0.8-0.8,1.3-0.9,2.9l0.5,0c0-0.9,0.2-1.4,0.4-1.8l0,0.8l0.5,0l-0.1-1.8L92.8,41.5z"/>
		</g>
	</g>
</g>
</svg>
